<svg width="1106" height="178" viewBox="0 0 1106 178" fill="none" xmlns="http://www.w3.org/2000/svg">
<path d="M676.934 1.18432C670.534 3.58432 668.667 5.05099 666.134 10.5177C658 27.5843 676.534 44.1177 694.267 35.7177C706.934 29.7177 707.334 9.18432 695.067 2.78432C689.067 -0.282342 682.534 -0.815676 676.934 1.18432Z" fill="black" fill-opacity="0.9"/>
<path d="M0 89.9843V174.384L38.4 173.584C67.4667 173.051 78.5333 172.384 84.6667 170.784C113.2 163.051 132.133 142.784 138.133 113.318C141.067 99.3176 140.133 71.5843 136.267 59.9843C130 40.1176 117.467 24.5176 101.2 15.9843C84.9333 7.45094 82.1333 7.05094 39.0667 6.38427L0 5.7176V89.9843ZM67.3333 42.1176C85.0667 45.4509 94.4 54.9176 98.6667 74.2509C101.067 85.1843 99.7333 105.984 96 115.851C89.7333 132.118 79.3333 137.851 54.5333 138.384L40.6667 138.651L40.2667 89.5843L40 40.6509H49.7333C55.0667 40.6509 63.0667 41.3176 67.3333 42.1176Z" fill="black" fill-opacity="0.9"/>
<path d="M401.333 89.9843V174.251L443.733 173.584C477.333 173.051 487.6 172.518 493.866 170.784C517.6 164.118 529.333 149.451 529.333 126.651C529.333 106.651 519.733 92.5176 502.266 86.5176L495.866 84.3843L502.266 81.451C516.266 74.9176 522.933 65.051 523.066 50.7843C523.2 30.3843 512.133 16.251 490.666 9.1843C484.533 7.1843 476.933 6.7843 442.4 6.25097L401.333 5.71763V89.9843ZM469.2 39.3176C479.866 40.7843 484 44.3843 484.933 52.9176C485.866 60.651 482.666 66.9176 476.666 69.451C473.6 70.651 467.066 71.3176 457.333 71.3176H442.666V54.651V37.9843H451.733C456.666 37.9843 464.533 38.651 469.2 39.3176ZM481.066 106.518C489.6 110.918 493.066 121.584 488.666 129.984C485.2 136.651 480 138.384 460.4 139.051L442.666 139.718V121.318V102.918L459.733 103.584C472.133 103.984 477.866 104.784 481.066 106.518Z" fill="black" fill-opacity="0.9"/>
<path d="M717.333 89.9843V174.118L737.733 173.718L758 173.318L758.4 89.5843L758.666 5.98435H738H717.333V89.9843Z" fill="black" fill-opacity="0.9"/>
<path d="M850.8 36.1176C851.333 63.1842 851.2 65.8509 849.333 63.0509C843.333 53.7176 833.066 48.5176 819.2 47.5842C802.266 46.5176 788.933 52.6509 778.4 66.6509C768.266 79.9842 763.6 101.584 766.266 122.251C770.533 155.851 790.266 176.118 818.666 175.851C832.933 175.851 843.333 170.118 850 158.651C851.066 156.918 851.333 158.518 851.333 164.918V173.318L871.733 173.718L892 174.118V89.9842V5.98424H871.2H850.4L850.8 36.1176ZM840.133 82.3842C847.466 87.3176 850.933 95.0509 851.733 108.518C852.533 123.718 849.866 133.318 843.333 139.051C837.333 144.384 830.933 145.584 823.466 142.784C816.4 140.118 812.933 136.518 809.2 128.118C805.866 120.651 805.333 106.251 807.866 96.9176C809.6 90.9176 816.133 82.3842 820.533 80.6509C826.133 78.3842 835.466 79.1842 840.133 82.3842Z" fill="black" fill-opacity="0.9"/>
<path d="M195.2 47.9844C173.066 52.7844 156.4 68.3844 149.866 90.651C146.533 101.984 146.8 123.851 150.4 134.918C157.733 157.851 176 173.184 200.4 176.784C235.066 181.984 267.466 161.184 273.333 129.851C275.333 119.584 274.933 100.918 272.666 91.9844C263.866 58.251 231.733 39.9844 195.2 47.9844ZM221.333 80.9177C230.266 85.451 233.733 92.651 234.4 108.251C235.333 128.784 231.333 138.784 220.266 143.584C208.8 148.784 197.2 143.984 191.2 131.851C188 125.318 187.6 122.918 187.6 111.584C187.6 102.384 188.266 97.1844 189.866 93.3177C195.866 79.3177 208.4 74.3844 221.333 80.9177Z" fill="black" fill-opacity="0.9"/>
<path d="M325.6 47.9845C303.866 52.9179 286.133 71.0512 280.666 94.2512C271.866 131.585 289.6 166.118 322 174.518C346.4 180.918 373.066 172.918 386 155.318C390.8 148.785 395.333 139.451 394.266 138.385C393.866 138.118 387.733 136.385 380.4 134.651C373.2 133.051 365.733 131.185 363.866 130.651C360.933 129.985 360.266 130.251 359.6 132.918C358.4 137.585 351.6 143.318 345.866 144.651C334.266 147.318 324.533 141.451 320.4 129.451C317.466 121.185 317.333 105.185 319.866 96.2512C325.866 75.5845 352 71.9845 357.866 90.9179C359.066 94.5179 359.733 94.6512 379.333 91.9845C387.466 90.9179 394.133 89.9845 394.4 89.9845C395.333 89.9845 394.266 85.1845 391.866 78.5179C387.866 67.8512 374.133 54.1179 363.6 50.2512C353.466 46.3845 336.666 45.4512 325.6 47.9845Z" fill="black" fill-opacity="0.9"/>
<path d="M939.867 48.5176C914.8 56.5176 899.734 80.2509 899.867 111.718C899.867 145.984 917.734 169.718 948.534 176.251C970 180.784 995.334 173.451 1007.2 159.184C1011.73 153.851 1017.6 142.384 1016.27 141.584C1015.73 141.184 1008.53 139.051 1000.13 136.651L984.934 132.384L981.6 136.651C979.734 139.051 976.267 141.851 973.867 142.784C964.667 146.651 949.6 143.851 943.734 137.184C941.334 134.518 937.334 125.851 937.334 123.318C937.334 122.384 950.934 121.984 978 121.984H1018.67V111.584C1018.67 99.9843 1015.2 84.1176 1010.67 75.1843C1006.93 67.9843 997.2 57.5843 990.134 53.4509C977.067 45.8509 955.067 43.7176 939.867 48.5176ZM966.267 75.4509C972.267 77.7176 977.2 83.4509 979.334 90.5176C982.534 101.318 983.867 100.651 959.2 100.651H937.067L938 96.2509C941.2 80.9176 954.667 71.0509 966.267 75.4509Z" fill="black" fill-opacity="0.9"/>
<path d="M1080 51.7177C1074.67 54.5177 1072.27 57.051 1067.2 65.451C1066 67.451 1065.73 65.9843 1066.4 58.9177L1067.07 49.851L1047.2 50.251L1027.33 50.651V111.984V173.318L1047.07 173.718L1066.67 174.118V141.051C1066.67 121.451 1067.33 105.851 1068.13 102.651C1071.33 91.051 1081.6 85.5843 1098.67 86.251L1106 86.651V67.9843V49.3177L1096 48.9177C1087.6 48.651 1084.93 49.051 1080 51.7177Z" fill="black" fill-opacity="0.9"/>
<path d="M536 89.5842C536 131.718 536.933 142.384 541.6 152.384C546 161.851 556.667 171.718 565.333 174.651C580.533 179.718 597.467 176.651 605.867 167.184C608.533 164.384 610.667 161.318 610.667 160.651C610.667 159.851 611.333 159.318 612.133 159.318C612.933 159.318 613.333 161.984 613.2 166.251L612.8 173.318L632.4 173.718L652 174.118V111.984V49.8508L632.4 50.2508L612.667 50.6508L612.267 88.6508C611.867 127.851 611.2 133.851 606.533 139.718C600.8 147.184 586.667 146.784 580.933 139.184C576.8 133.451 576.133 126.251 576 86.9175V49.9842H556H536V89.5842Z" fill="black" fill-opacity="0.9"/>
<path d="M664.933 50.7844C663.867 51.9844 663.733 164.251 664.8 169.718L665.733 173.984H685.467H705.333V111.984V49.9844H685.6C674.667 49.9844 665.467 50.3844 664.933 50.7844Z" fill="black" fill-opacity="0.9"/>
</svg>
